# xmcd
#
# Track frame offsets: 
#        150
#        18703
#        34908
#        58552
#        69882
#        85920
#        95776
#        116515
#        130970
#        154640
#        171629
#        194179
#
# Disc length: 2903 seconds
#
# Revision: 1
# Processed by: cddbd v1.5.2PL0 Copyright (c) Steve Scherf et al.
# Submitted via: ExactAudioCopy v0.99pb5
#
DISCID=ad0b550c
DTITLE=Oh Susanna - A Girl in Teen City
DYEAR=2017
DGENRE=Folk-Rock
TTITLE0=Flashlights
TTITLE1=Wolf Boy
TTITLE2=Lucky Star
TTITLE3=My Boyfriend
TTITLE4=The Darkroom at the School
TTITLE5=Getting Ready
TTITLE6=Tickets on the Weekend
TTITLE7=Walked All the Way Home
TTITLE8=Waiting for the Blossoms
TTITLE9=Thunderbird
TTITLE10=Puget Sound
TTITLE11=My Old Vancouver
EXTD=
EXTT0=
EXTT1=
EXTT2=
EXTT3=
EXTT4=
EXTT5=
EXTT6=
EXTT7=
EXTT8=
EXTT9=
EXTT10=
EXTT11=
PLAYORDER=
